<svg width="23" height="23" viewBox="0 0 23 23" fill="none" xmlns="http://www.w3.org/2000/svg">
<path d="M22.4605 3.30078C21.968 1.95 20.9066 0.888672 19.5559 0.401172C18.3117 -1.21072e-07 17.1742 0 14.8738 0H7.95742C5.67227 0 4.51953 0 3.2957 0.380859C1.93984 0.873438 0.878516 1.93984 0.391016 3.29063C4.84288e-08 4.52969 0 5.67227 0 7.95742V14.8789C0 17.1742 0 18.3066 0.380859 19.5457C0.873437 20.8965 1.93477 21.9578 3.28555 22.4453C4.52461 22.8363 5.66719 22.8363 7.95234 22.8363H14.8789C17.1742 22.8363 18.3168 22.8363 19.5457 22.4555C20.9016 21.9629 21.968 20.8965 22.4555 19.5457C22.8465 18.3066 22.8465 17.1641 22.8465 14.8789V7.97774C22.8516 5.68242 22.8516 4.53984 22.4605 3.30078ZM16.5902 7.71367L15.7016 8.59727C15.5238 8.75977 15.2496 8.76484 15.0668 8.60234C14.2086 7.88125 13.1219 7.48008 11.9996 7.48008C11.0754 7.48008 10.1512 7.78477 10.1512 8.63281C10.1512 9.48594 11.1414 9.77539 12.284 10.202C14.2848 10.8723 15.9402 11.7102 15.9402 13.6703C15.9402 15.8031 14.2848 17.2707 11.5832 17.4332L11.3344 18.5809C11.2887 18.7941 11.1008 18.9516 10.8824 18.9516H9.17617L9.08984 18.9465C8.83594 18.8906 8.67852 18.6367 8.7293 18.3828L8.99844 17.1742C7.97266 16.9203 7.02813 16.4023 6.25117 15.6813V15.6711C6.07344 15.4934 6.07344 15.2039 6.25117 15.0262L7.20078 14.102C7.38359 13.9344 7.66289 13.9344 7.84062 14.102C8.70898 14.9195 9.8668 15.3766 11.0703 15.3613C12.3094 15.3613 13.1371 14.8383 13.1371 14.0055C13.1371 13.1727 12.2992 12.9594 10.7199 12.3703C9.04414 11.7711 7.45469 10.923 7.45469 8.94258C7.45469 6.64219 9.36406 5.51484 11.634 5.41328L11.8727 4.24023C11.9184 4.02695 12.1113 3.86953 12.3297 3.87461H14.0156L14.1121 3.88477C14.3559 3.94063 14.5234 4.1793 14.4676 4.42813L14.2137 5.7332C15.0668 6.01758 15.8793 6.46445 16.5699 7.05352L16.5902 7.07383C16.768 7.25664 16.768 7.54102 16.5902 7.71367Z" fill="#40A84A"/>
</svg>
