<svg width="31" height="20" viewBox="0 0 31 20" fill="none" xmlns="http://www.w3.org/2000/svg">
<path d="M3.00555 14.8025V16.516H1.06805V14.8025H0V19.289H1.06805V17.489H3.00555V19.289H4.07299V14.8025H4.02152H3.00555Z" fill="#002D73"/>
<path d="M7.99097 14.8025L6.87146 16.5765L5.75195 14.8025H4.495L6.33804 17.739V19.289H7.40548V17.739L9.24853 14.8025H9.15347H7.99097Z" fill="#002D73"/>
<path d="M12.684 14.8025V18.092C12.684 18.2125 12.5895 18.3161 12.4599 18.3161H10.7465V14.8025H9.67841V19.289H12.8299C13.1138 19.289 13.3379 19.2031 13.5013 19.0396C13.6648 18.8761 13.7508 18.6521 13.7508 18.3681V14.7946H13.6993H12.6833V14.8025H12.684Z" fill="#002D73"/>
<path d="M17.9025 14.8025H14.7419V19.289H15.81V15.7755H17.5235C17.6615 15.7755 17.7475 15.8875 17.7475 15.9995V19.289H18.8155V15.724C18.8155 15.4401 18.7296 15.2161 18.5661 15.0526C18.402 14.8885 18.178 14.8025 17.9025 14.8025Z" fill="#002D73"/>
<path d="M22.9569 14.8025H19.8055V19.289H22.966C23.2415 19.289 23.474 19.2031 23.6375 19.0396C23.801 18.8761 23.8869 18.6521 23.8869 18.3681V15.7162C23.8869 15.4322 23.801 15.2082 23.6375 15.0447C23.4655 14.8885 23.2415 14.8025 22.9569 14.8025ZM22.811 16.008V18.0836C22.811 18.204 22.7251 18.3161 22.587 18.3161H20.8735V15.7755H22.5785C22.716 15.7755 22.811 15.8706 22.811 16.008Z" fill="#002D73"/>
<path d="M25.7384 14.8025C25.4545 14.8025 25.2304 14.8885 25.067 15.052C24.9035 15.2154 24.8175 15.4395 24.8175 15.7234V19.2884H25.8856V17.9019H27.8231V19.2884H28.8911V14.8019H25.7384V14.8025ZM27.8224 15.7755V16.9295H25.8849V15.9995C25.8849 15.8875 25.9709 15.7755 26.109 15.7755H27.8224Z" fill="#002D73"/>
<path d="M31 14.8025H29.9319V19.289H31V14.8025Z" fill="#002D73"/>
<path d="M14.3206 5.60605C14.5615 5.60605 14.8285 5.57154 15.104 5.52008C16.1031 5.30453 17.0676 4.96062 17.9631 4.60703C20.3825 3.68551 21.571 2.77307 21.8726 2.52301C21.9331 2.48002 21.967 2.44551 21.993 2.41947C22.0536 2.35892 22.122 2.28142 22.122 2.16094C22.122 1.93691 21.8635 1.86789 21.7085 1.8249C21.6915 1.81642 21.674 1.81642 21.657 1.80795C19.866 1.27392 17.799 0.98996 15.6726 0.98996H15.5436C15.2251 0.998436 14.9321 1.06746 14.6996 1.17947C13.9506 1.55002 13.5885 2.41947 13.3736 2.93594C13.3476 2.9874 13.3306 3.03947 13.3131 3.08246C12.9171 4.00398 12.8565 4.69301 13.132 5.11441C13.356 5.44258 13.752 5.60605 14.3206 5.60605ZM13.4765 3.15148C13.4935 3.10849 13.5195 3.05703 13.5371 3.00496C13.7435 2.51392 14.0881 1.68746 14.7771 1.34295C14.9835 1.23941 15.259 1.17947 15.5436 1.171H15.6641C17.7735 1.171 19.8321 1.45496 21.5971 1.98051C21.614 1.98898 21.6316 1.98898 21.6485 1.99746C21.7521 2.02349 21.9325 2.07496 21.9325 2.16094C21.9325 2.20392 21.9155 2.24691 21.855 2.29898C21.838 2.31594 21.8035 2.34197 21.7515 2.38496C21.4499 2.63441 20.279 3.53898 17.8849 4.44295C16.9979 4.78746 16.0334 5.14045 15.052 5.34691C14.7849 5.39838 14.5264 5.43289 14.303 5.43289C13.795 5.43289 13.442 5.29484 13.261 5.01935C13.037 4.65002 13.106 4.02154 13.4765 3.15148Z" fill="url(#paint0_radial_76_749)"/>
<path d="M15.638 0C8.90402 0 3.42755 2.81604 3.42755 6.2775C3.42755 9.73896 8.90402 12.555 15.638 12.555C22.3721 12.555 27.8485 9.73896 27.8485 6.2775C27.8485 2.81604 22.3715 0 15.638 0ZM15.638 12.374C9.01603 12.374 3.62554 9.64451 3.62554 6.28598C3.62554 2.92744 9.01603 0.197989 15.638 0.197989C22.2601 0.197989 27.659 2.92744 27.659 6.28598C27.659 9.63604 22.2685 12.374 15.638 12.374Z" fill="url(#paint1_radial_76_749)"/>
<path d="M11.7885 1.77403C11.866 1.64507 11.8315 1.54153 11.78 1.48099C11.7025 1.38653 11.496 1.37745 11.186 1.438C7.08701 2.27355 4.43506 4.17653 4.43506 6.28599C4.43506 7.44849 5.24457 8.55952 6.77701 9.498C6.88902 9.55855 6.98348 9.59245 7.07854 9.59245C7.22506 9.58398 7.29408 9.498 7.35402 9.40294C7.38006 9.36843 7.40549 9.30849 7.43152 9.24794L7.45756 9.20495C8.79201 6.12191 10.2476 3.608 11.6771 1.92843C11.737 1.86001 11.763 1.81702 11.7885 1.77403ZM11.642 1.67898C11.6159 1.72196 11.5905 1.75648 11.5475 1.80794C10.1095 3.49599 8.63701 6.02745 7.30195 9.11898L7.285 9.16196C7.25896 9.22251 7.23354 9.27398 7.21598 9.30849C7.17299 9.37751 7.13848 9.41202 7.08701 9.41202C7.02647 9.41202 6.96652 9.38599 6.88055 9.343C5.40805 8.43903 4.62457 7.37946 4.62457 6.27751C4.62457 4.25403 7.21658 2.41946 11.229 1.60148C11.341 1.57544 11.4446 1.56696 11.5221 1.56696C11.6256 1.56696 11.651 1.593 11.6601 1.593C11.668 1.61056 11.668 1.64507 11.642 1.67898Z" fill="url(#paint2_radial_76_749)"/>
<path d="M16.9986 6.94052C16.7576 6.94052 16.4906 6.97503 16.2151 7.0265C15.1731 7.25052 14.174 7.62046 13.3736 7.93046L13.3567 7.93894C10.9281 8.86046 9.7402 9.77291 9.43868 10.0314C9.42172 10.0484 9.40416 10.066 9.38721 10.0744C9.36118 10.0914 9.34422 10.1089 9.32666 10.1259C9.2752 10.1774 9.20618 10.2639 9.20618 10.3844C9.20618 10.6085 9.49014 10.6944 9.64514 10.7374L9.67118 10.7459C11.4537 11.2714 13.5201 11.5554 15.6556 11.5554H15.6726C15.6895 11.5554 15.7071 11.5554 15.724 11.5554C15.741 11.5554 15.7586 11.5554 15.7755 11.5554C16.077 11.5469 16.387 11.4779 16.6195 11.3659C17.3776 10.9869 17.7306 10.1174 17.9455 9.60035C17.9625 9.54888 17.98 9.50589 17.997 9.47138C18.393 8.54986 18.4535 7.86083 18.178 7.43943C17.9631 7.104 17.5665 6.94052 16.9986 6.94052ZM17.8335 9.39509C17.8165 9.43808 17.799 9.48107 17.773 9.53314C17.5665 10.0327 17.222 10.8676 16.5245 11.2121C16.223 11.3586 15.9559 11.3841 15.629 11.3841C13.5195 11.3841 11.47 11.1086 9.696 10.583L9.66149 10.5745C9.56704 10.5485 9.35149 10.4801 9.35149 10.3935C9.35149 10.3505 9.36844 10.316 9.42051 10.2645C9.43747 10.2476 9.45502 10.2385 9.47198 10.2216C9.48893 10.2046 9.50649 10.1955 9.52344 10.1786C9.82497 9.92912 10.9875 9.03302 13.39 8.1121L13.4069 8.10363C14.1989 7.8021 15.1894 7.42308 16.223 7.20814C16.49 7.15667 16.7485 7.12216 16.9719 7.12216C17.4799 7.12216 17.8329 7.26021 18.0139 7.5357C18.2815 7.90503 18.2125 8.52503 17.8335 9.39509Z" fill="url(#paint3_radial_76_749)"/>
<path d="M24.533 3.06549C24.4294 2.99647 24.3435 2.97104 24.266 2.97104C24.249 2.97104 24.2399 2.97104 24.2315 2.97104C24.111 2.97952 24.0159 3.04006 23.9644 3.15207C23.9215 3.21262 23.8785 3.30707 23.8609 3.35006C23.1204 5.08957 21.5789 8.35305 19.6414 10.6266C19.5899 10.6871 19.5554 10.7301 19.5294 10.7816C19.4688 10.8936 19.4688 10.9971 19.5379 11.0746C19.5893 11.1261 19.6668 11.1521 19.7873 11.1521C19.8733 11.1521 19.9684 11.1437 20.0973 11.1176C24.1963 10.2821 26.8398 8.37909 26.8398 6.26963C26.841 5.10653 26.04 3.99549 24.533 3.06549ZM20.0555 10.9535C19.9435 10.9796 19.8491 10.9881 19.7801 10.9881C19.6856 10.9881 19.668 10.9711 19.6596 10.962C19.6335 10.936 19.6596 10.893 19.668 10.8676C19.685 10.8331 19.711 10.7985 19.7625 10.7386C21.7169 8.43963 23.2585 5.16707 24.008 3.41909C24.0426 3.34159 24.0771 3.28104 24.1025 3.22957C24.137 3.16055 24.1715 3.13512 24.2405 3.13512C24.249 3.13512 24.249 3.13512 24.2575 3.13512C24.3005 3.13512 24.361 3.16116 24.4294 3.20414C25.885 4.09963 26.6509 5.1586 26.6509 6.26963C26.6685 8.30098 24.068 10.1356 20.0555 10.9535Z" fill="url(#paint4_radial_76_749)"/>
<mask id="mask0_76_749" style="mask-type:luminance" maskUnits="userSpaceOnUse" x="3" y="0" width="25" height="13">
<path d="M15.638 12.4606C22.32 12.4606 27.745 9.69659 27.745 6.28659C27.745 2.87659 22.3284 0.103546 15.638 0.103546C8.95607 0.103546 3.53107 2.86751 3.53107 6.28659C3.53894 9.69599 8.95546 12.4606 15.638 12.4606ZM17.9194 9.42898C17.7214 9.89398 17.3684 10.893 16.5759 11.289C16.3349 11.4095 16.0334 11.4609 15.7664 11.47C15.7058 11.4785 15.6628 11.47 15.6459 11.47C13.4589 11.47 11.4094 11.177 9.68687 10.669C9.5579 10.6345 9.28241 10.5654 9.28241 10.3935C9.28241 10.316 9.3254 10.2554 9.37687 10.1955C9.4029 10.1695 9.43741 10.144 9.48888 10.101C9.88486 9.76501 11.1079 8.88708 13.3808 8.0255C14.1819 7.72398 15.1803 7.33648 16.2314 7.12153C16.8435 6.98349 19.1255 6.63898 17.9194 9.42898ZM24.0334 3.20355C24.0764 3.12605 24.137 3.0655 24.2314 3.05702C24.292 3.04855 24.3604 3.0655 24.4809 3.13452C25.9019 4.01306 26.7453 5.09806 26.7453 6.27751C26.7453 8.413 23.9983 10.2385 20.0719 11.0395C19.8224 11.091 19.6499 11.091 19.5984 11.0226C19.5639 10.9796 19.5469 10.9106 19.5984 10.8331C19.6244 10.7901 19.6499 10.7471 19.7019 10.6865C21.8459 8.17202 23.4734 4.4605 23.9384 3.38458C23.9644 3.32403 24.008 3.24653 24.0334 3.20355ZM13.399 3.11757C13.597 2.65257 13.95 1.65355 14.7425 1.25757C14.9835 1.13708 15.285 1.08562 15.552 1.07653C15.6126 1.07653 15.6556 1.07653 15.6725 1.07653C17.8686 1.07653 19.909 1.37806 21.6316 1.88605C21.7605 1.92056 22.036 1.97202 22.036 2.15306C22.036 2.23056 21.993 2.2911 21.9325 2.35105C21.9064 2.37708 21.8719 2.41159 21.8205 2.4455C21.416 2.78153 20.2099 3.65099 17.9285 4.52105C17.1275 4.83105 16.12 5.21007 15.078 5.43409C14.4755 5.56306 12.1935 5.90757 13.399 3.11757ZM11.2114 1.5155C11.47 1.46403 11.6595 1.46403 11.7194 1.53245C11.7539 1.57544 11.7709 1.63599 11.7194 1.72196C11.6934 1.76495 11.668 1.80794 11.6159 1.86849C9.47193 4.383 7.84443 8.09452 7.3879 9.16196C7.35339 9.23946 7.31888 9.30849 7.29345 9.35995C7.24198 9.43745 7.18991 9.498 7.08699 9.50648C7.03552 9.50648 6.95802 9.48952 6.83753 9.4205C5.4165 8.55105 4.53857 7.45696 4.53857 6.27751C4.52948 4.1505 7.28497 2.31653 11.2114 1.5155Z" fill="white"/>
</mask>
<g mask="url(#mask0_76_749)">
<mask id="mask1_76_749" style="mask-type:luminance" maskUnits="userSpaceOnUse" x="3" y="0" width="25" height="13">
<path d="M15.638 12.331C9.03357 12.331 3.66003 9.61851 3.66003 6.27754C3.66003 2.93656 9.03357 0.22406 15.638 0.22406C22.2425 0.22406 27.616 2.93656 27.616 6.27754C27.616 9.61851 22.2425 12.331 15.638 12.331ZM16.9985 6.90601C16.7575 6.90601 16.482 6.94052 16.2066 6.99199C15.1561 7.21601 14.1655 7.59504 13.3651 7.89595L13.3481 7.90443C10.9111 8.83443 9.72259 9.74748 9.42168 10.0054L9.37021 10.0484C9.34417 10.0653 9.32722 10.0914 9.30966 10.0999C9.24912 10.1513 9.17162 10.2464 9.17162 10.3838C9.17162 10.6333 9.47314 10.7199 9.63662 10.7713L9.66265 10.7798C11.4536 11.3053 13.5207 11.5893 15.6562 11.5893C15.6822 11.5893 15.6992 11.5893 15.7252 11.5893C15.7422 11.5893 15.7682 11.5893 15.7858 11.5893C16.0788 11.5808 16.3973 11.5118 16.6383 11.3998C17.4048 11.0123 17.7662 10.1338 17.9903 9.60883L18.0417 9.47986C18.4462 8.54138 18.5067 7.85236 18.2228 7.4134C17.9885 7.07857 17.5755 6.90601 16.9985 6.90601ZM24.266 2.93656C24.249 2.93656 24.2399 2.93656 24.223 2.93656C24.1025 2.94504 23.9989 3.01406 23.9299 3.14302C23.8954 3.19449 23.8524 3.28955 23.8264 3.33254C23.0774 5.07205 21.5444 8.32705 19.6153 10.6006C19.5639 10.6611 19.5294 10.7041 19.4949 10.7641C19.4089 10.9021 19.4519 11.0311 19.5118 11.1001C19.5633 11.1606 19.6583 11.1945 19.7873 11.1945C19.8733 11.1945 19.9768 11.1861 20.1058 11.16C24.2218 10.316 26.8828 8.40455 26.8828 6.27754C26.8828 5.089 26.0818 3.96949 24.5578 3.03101C24.4385 2.9626 24.3519 2.93656 24.266 2.93656ZM11.5214 1.36052C11.427 1.36052 11.315 1.37748 11.1854 1.40351C7.06943 2.23906 4.40839 4.159 4.40839 6.28601C4.40839 7.46547 5.22638 8.58498 6.76791 9.53254C6.87992 9.60156 6.98345 9.63607 7.08638 9.63607C7.25833 9.6276 7.34492 9.52406 7.39638 9.43808C7.42242 9.39509 7.44785 9.33455 7.48236 9.27461L7.49931 9.23162C8.83376 6.14857 10.2893 3.63467 11.7103 1.96357C11.7709 1.89455 11.7963 1.85156 11.8224 1.8001C11.9083 1.65357 11.8738 1.53308 11.8054 1.46406C11.7539 1.38656 11.6595 1.36052 11.5214 1.36052ZM15.5514 0.956072C15.233 0.964548 14.923 1.04205 14.6905 1.15406C13.9239 1.53308 13.5625 2.40254 13.3469 2.92808L13.2864 3.07461C12.8819 4.01308 12.8214 4.70211 13.1053 5.14107C13.3294 5.47711 13.7338 5.64906 14.3193 5.64906C14.5603 5.64906 14.8358 5.61455 15.1113 5.56308C16.1103 5.34754 17.0833 4.99455 17.9788 4.65004C20.3982 3.72851 21.5952 2.81607 21.9052 2.55754C21.9658 2.51455 21.9997 2.48004 22.0257 2.44553C22.0863 2.38498 22.1547 2.299 22.1547 2.17004C22.1547 1.92058 21.8707 1.84308 21.7157 1.79949L21.6643 1.78254C19.8733 1.24851 17.7977 0.964548 15.6707 0.964548H15.5502V0.956072H15.5514Z" fill="white"/>
</mask>
<g mask="url(#mask1_76_749)">
<mask id="mask2_76_749" style="mask-type:luminance" maskUnits="userSpaceOnUse" x="3" y="0" width="25" height="13">
<path d="M15.638 12.331C9.04205 12.331 3.66852 9.6185 3.66852 6.286C3.66852 2.9535 9.03297 0.240997 15.638 0.240997C22.234 0.240997 27.6075 2.9535 27.6075 6.286C27.6075 9.6185 22.234 12.331 15.638 12.331ZM16.9894 6.906C16.7485 6.906 16.473 6.94051 16.1975 6.99197C15.1555 7.216 14.1564 7.58594 13.356 7.89594L13.3391 7.90441C10.9021 8.83441 9.7226 9.74746 9.4126 9.99692L9.36114 10.0484C9.3351 10.0653 9.31815 10.0914 9.30059 10.0998C9.24004 10.1513 9.16254 10.2464 9.16254 10.3838C9.16254 10.6333 9.46406 10.7198 9.62754 10.7713L9.65358 10.7798C11.4361 11.3053 13.5116 11.5893 15.638 11.5893C15.6641 11.5893 15.681 11.5893 15.7071 11.5893C15.724 11.5893 15.75 11.5893 15.7676 11.5893C16.0606 11.5808 16.3791 11.5118 16.6201 11.3998C17.3866 11.0123 17.7481 10.1428 17.9636 9.61729L18.0151 9.48832C18.4196 8.55832 18.4801 7.86082 18.1961 7.42186C17.9885 7.07856 17.5755 6.906 16.9894 6.906ZM24.2575 2.93654C24.2405 2.93654 24.2314 2.93654 24.2145 2.93654C24.094 2.94502 23.9905 3.01404 23.9214 3.14301C23.8869 3.19447 23.8439 3.28953 23.8179 3.33252C23.0774 5.07203 21.5444 8.32703 19.6069 10.5915C19.5554 10.652 19.5209 10.695 19.4864 10.755C19.4004 10.893 19.4434 11.022 19.5033 11.091C19.5548 11.1515 19.6499 11.1855 19.7788 11.1855C19.8648 11.1855 19.9683 11.177 20.0973 11.1509C24.2048 10.3154 26.8658 8.39545 26.8658 6.26844C26.8658 5.0799 26.0648 3.96039 24.5408 3.03039C24.4294 2.97106 24.335 2.93654 24.2575 2.93654ZM11.5214 1.36051C11.427 1.36051 11.315 1.37746 11.1854 1.4035C7.06944 2.23904 4.41688 4.15051 4.41688 6.27752C4.41688 7.4485 5.22639 8.57649 6.76791 9.51557C6.87992 9.58459 6.98346 9.6191 7.07791 9.6191C7.24987 9.61063 7.33645 9.50709 7.38791 9.42111C7.41395 9.37813 7.43938 9.31758 7.47389 9.25764L7.49084 9.21465C8.81682 6.1316 10.2724 3.62617 11.7019 1.95568C11.7624 1.88666 11.7879 1.84367 11.8139 1.79221C11.8999 1.64568 11.8654 1.5252 11.7969 1.45617C11.763 1.39502 11.668 1.36051 11.5214 1.36051ZM15.5514 0.964532C15.233 0.973009 14.9314 1.04203 14.6989 1.16252C13.9324 1.54154 13.571 2.411 13.3554 2.93654L13.2949 3.08307C12.8904 4.02154 12.8299 4.71057 13.1138 5.14953C13.3379 5.48557 13.7423 5.65752 14.3278 5.65752C14.5688 5.65752 14.8443 5.62301 15.1197 5.57154C16.1188 5.356 17.0833 5.01209 17.9872 4.6585C20.4067 3.73697 21.5952 2.82453 21.9052 2.566C21.9658 2.52301 21.9997 2.4885 22.0257 2.45399C22.0863 2.40252 22.1547 2.30746 22.1547 2.1785C22.1547 1.92904 21.8707 1.85154 21.7157 1.80795L21.6643 1.791C19.8733 1.25697 17.8062 0.973009 15.6707 0.973009L15.5514 0.964532Z" fill="white"/>
</mask>
<g mask="url(#mask2_76_749)">
<path d="M15.638 12.4515C22.3115 12.4515 27.728 9.68751 27.728 6.27751C27.728 2.86751 22.32 0.103546 15.638 0.103546C8.96456 0.103546 3.54803 2.86751 3.54803 6.27751C3.54803 9.68751 8.96395 12.4515 15.638 12.4515ZM17.911 9.42898C17.713 9.89398 17.3685 10.8845 16.5674 11.2805C16.3265 11.401 16.0249 11.4525 15.7579 11.4615C15.6974 11.47 15.6544 11.4615 15.6374 11.4615C13.4069 11.4615 11.3319 11.1515 9.59243 10.626C9.57548 10.6175 9.54096 10.6 9.54096 10.6C9.36901 10.5485 9.28243 10.471 9.28243 10.3759C9.28243 10.2984 9.32542 10.2379 9.37688 10.1779C9.40292 10.1519 9.43743 10.1265 9.48889 10.0835C9.88487 9.74745 11.0994 8.86952 13.3724 8.00794C14.1734 7.70642 15.1718 7.31892 16.2138 7.10398C16.8435 6.98349 19.1165 6.63898 17.911 9.42898ZM24.025 3.20355C24.068 3.12605 24.1285 3.0655 24.223 3.05702C24.2835 3.04855 24.3519 3.0655 24.4724 3.13452C25.8935 4.00398 26.7369 5.08898 26.7369 6.26903C26.7369 8.39605 23.9899 10.23 20.0719 11.031C19.8224 11.0825 19.6499 11.0825 19.5984 11.0141C19.5639 10.9711 19.5469 10.9021 19.5984 10.8246C19.6244 10.7816 19.6499 10.7386 19.7019 10.6865C21.8374 8.17202 23.4734 4.46958 23.9299 3.39306C23.956 3.32403 23.999 3.25501 24.025 3.20355ZM13.399 3.12605C13.597 2.66105 13.9415 1.6705 14.7425 1.26605C14.9835 1.14556 15.285 1.09409 15.5521 1.08501C15.6126 1.08501 15.6556 1.08501 15.6725 1.08501C17.9031 1.08501 19.978 1.39501 21.7175 1.92904C21.7345 1.92904 21.769 1.94599 21.7866 1.94599C21.95 1.99745 22.0275 2.07495 22.036 2.16153C22.036 2.23903 21.993 2.29958 21.9325 2.35952C21.9065 2.38556 21.8719 2.42007 21.8205 2.45398C21.416 2.79001 20.2099 3.65946 17.937 4.52952C17.136 4.83952 16.1375 5.21855 15.0955 5.43349C14.4755 5.56306 12.202 5.90757 13.399 3.12605ZM11.2205 1.52398C11.4791 1.47251 11.6686 1.47251 11.7285 1.54093C11.763 1.58392 11.78 1.64446 11.7285 1.73044C11.7025 1.77343 11.6771 1.81642 11.625 1.87696C9.4895 4.39148 7.862 8.09392 7.397 9.16196C7.36249 9.23946 7.32798 9.30849 7.30255 9.35995C7.25108 9.43745 7.19901 9.498 7.09608 9.498C7.04462 9.498 6.96712 9.48105 6.84663 9.41202C5.43468 8.54257 4.55614 7.45757 4.55614 6.27751C4.54645 4.1505 7.29346 2.31653 11.2205 1.52398Z" fill="white"/>
</g>
<mask id="mask3_76_749" style="mask-type:luminance" maskUnits="userSpaceOnUse" x="3" y="0" width="25" height="13">
<path d="M15.638 12.331C9.04205 12.331 3.66852 9.6185 3.66852 6.286C3.66852 2.9535 9.03297 0.240997 15.638 0.240997C22.234 0.240997 27.6075 2.9535 27.6075 6.286C27.6075 9.6185 22.234 12.331 15.638 12.331ZM16.9894 6.906C16.7485 6.906 16.473 6.94051 16.1975 6.99197C15.1555 7.216 14.1564 7.58594 13.356 7.89594L13.3391 7.90441C10.9021 8.83441 9.7226 9.74746 9.4126 9.99692L9.36114 10.0484C9.3351 10.0653 9.31815 10.0914 9.30059 10.0998C9.24004 10.1513 9.16254 10.2464 9.16254 10.3838C9.16254 10.6333 9.46406 10.7198 9.62754 10.7713L9.65358 10.7798C11.4361 11.3053 13.5116 11.5893 15.638 11.5893C15.6641 11.5893 15.681 11.5893 15.7071 11.5893C15.724 11.5893 15.75 11.5893 15.7676 11.5893C16.0606 11.5808 16.3791 11.5118 16.6201 11.3998C17.3866 11.0123 17.7481 10.1428 17.9636 9.61729L18.0151 9.48832C18.4196 8.55832 18.4801 7.86082 18.1961 7.42186C17.9885 7.07856 17.5755 6.906 16.9894 6.906ZM24.2575 2.93654C24.2405 2.93654 24.2314 2.93654 24.2145 2.93654C24.094 2.94502 23.9905 3.01404 23.9214 3.14301C23.8869 3.19447 23.8439 3.28953 23.8179 3.33252C23.0774 5.07203 21.5444 8.32703 19.6069 10.5915C19.5554 10.652 19.5209 10.695 19.4864 10.755C19.4004 10.893 19.4434 11.022 19.5033 11.091C19.5548 11.1515 19.6499 11.1855 19.7788 11.1855C19.8648 11.1855 19.9683 11.177 20.0973 11.1509C24.2048 10.3154 26.8658 8.39545 26.8658 6.26844C26.8658 5.0799 26.0648 3.96039 24.5408 3.03039C24.4294 2.97106 24.335 2.93654 24.2575 2.93654ZM11.5214 1.36051C11.427 1.36051 11.315 1.37746 11.1854 1.4035C7.06944 2.23904 4.41688 4.15051 4.41688 6.27752C4.41688 7.4485 5.22639 8.57649 6.76791 9.51557C6.87992 9.58459 6.98346 9.6191 7.07791 9.6191C7.24987 9.61063 7.33645 9.50709 7.38791 9.42111C7.41395 9.37813 7.43938 9.31758 7.47389 9.25764L7.49084 9.21465C8.81682 6.1316 10.2724 3.62617 11.7019 1.95568C11.7624 1.88666 11.7879 1.84367 11.8139 1.79221C11.8999 1.64568 11.8654 1.5252 11.7969 1.45617C11.763 1.39502 11.668 1.36051 11.5214 1.36051ZM15.5514 0.964532C15.233 0.973009 14.9314 1.04203 14.6989 1.16252C13.9324 1.54154 13.571 2.411 13.3554 2.93654L13.2949 3.08307C12.8904 4.02154 12.8299 4.71057 13.1138 5.14953C13.3379 5.48557 13.7423 5.65752 14.3278 5.65752C14.5688 5.65752 14.8443 5.62301 15.1197 5.57154C16.1188 5.356 17.0833 5.01209 17.9872 4.6585C20.4067 3.73697 21.5952 2.82453 21.9052 2.566C21.9658 2.52301 21.9997 2.4885 22.0257 2.45399C22.0863 2.40252 22.1547 2.30746 22.1547 2.1785C22.1547 1.92904 21.8707 1.85154 21.7157 1.80795L21.6643 1.791C19.8733 1.25697 17.8062 0.973009 15.6707 0.973009L15.5514 0.964532Z" fill="white"/>
</mask>
<g mask="url(#mask3_76_749)">
<path d="M15.638 12.4515C22.3115 12.4515 27.728 9.68751 27.728 6.27751C27.728 2.86751 22.32 0.103546 15.638 0.103546C8.96456 0.103546 3.54803 2.86751 3.54803 6.27751C3.54803 9.68751 8.96395 12.4515 15.638 12.4515ZM17.911 9.42898C17.713 9.89398 17.3685 10.8845 16.5674 11.2805C16.3265 11.401 16.0249 11.4525 15.7579 11.4615C15.6974 11.47 15.6544 11.4615 15.6374 11.4615C13.4069 11.4615 11.3319 11.1515 9.59243 10.626C9.57548 10.6175 9.54096 10.6 9.54096 10.6C9.36901 10.5485 9.28243 10.471 9.28243 10.3759C9.28243 10.2984 9.32542 10.2379 9.37688 10.1779C9.40292 10.1519 9.43743 10.1265 9.48889 10.0835C9.88487 9.74745 11.0994 8.86952 13.3724 8.00794C14.1734 7.70642 15.1718 7.31892 16.2138 7.10398C16.8435 6.98349 19.1165 6.63898 17.911 9.42898ZM24.025 3.20355C24.068 3.12605 24.1285 3.0655 24.223 3.05702C24.2835 3.04855 24.3519 3.0655 24.4724 3.13452C25.8935 4.00398 26.7369 5.08898 26.7369 6.26903C26.7369 8.39605 23.9899 10.23 20.0719 11.031C19.8224 11.0825 19.6499 11.0825 19.5984 11.0141C19.5639 10.9711 19.5469 10.9021 19.5984 10.8246C19.6244 10.7816 19.6499 10.7386 19.7019 10.6865C21.8374 8.17202 23.4734 4.46958 23.9299 3.39306C23.956 3.32403 23.999 3.25501 24.025 3.20355ZM13.399 3.12605C13.597 2.66105 13.9415 1.6705 14.7425 1.26605C14.9835 1.14556 15.285 1.09409 15.5521 1.08501C15.6126 1.08501 15.6556 1.08501 15.6725 1.08501C17.9031 1.08501 19.978 1.39501 21.7175 1.92904C21.7345 1.92904 21.769 1.94599 21.7866 1.94599C21.95 1.99745 22.0275 2.07495 22.036 2.16153C22.036 2.23903 21.993 2.29958 21.9325 2.35952C21.9065 2.38556 21.8719 2.42007 21.8205 2.45398C21.416 2.79001 20.2099 3.65946 17.937 4.52952C17.136 4.83952 16.1375 5.21855 15.0955 5.43349C14.4755 5.56306 12.202 5.90757 13.399 3.12605ZM11.2205 1.52398C11.4791 1.47251 11.6686 1.47251 11.7285 1.54093C11.763 1.58392 11.78 1.64446 11.7285 1.73044C11.7025 1.77343 11.6771 1.81642 11.625 1.87696C9.4895 4.39148 7.862 8.09392 7.397 9.16196C7.36249 9.23946 7.32798 9.30849 7.30255 9.35995C7.25108 9.43745 7.19901 9.498 7.09608 9.498C7.04462 9.498 6.96712 9.48105 6.84663 9.41202C5.43468 8.54257 4.55614 7.45757 4.55614 6.27751C4.54645 4.1505 7.29346 2.31653 11.2205 1.52398Z" fill="url(#paint5_linear_76_749)"/>
</g>
</g>
<path d="M19.2031 10.7126C20.262 9.42959 21.4766 7.19057 21.8726 6.42404L18.7556 7.47453C18.7726 8.33551 18.5922 10.23 16.8787 11.5475C16.8787 11.5475 16.2672 11.754 15.1392 11.754L14.8461 12.2105C15.6042 12.2711 17.7481 12.357 20.8136 11.685L21.0891 11.0565C20.2445 11.384 18.1695 11.978 19.2031 10.7126Z" fill="url(#paint6_linear_76_749)"/>
<path d="M15.3105 5.38204C15.2415 5.39899 15.164 5.41655 15.095 5.4335C14.7589 5.50253 13.9585 5.63149 13.459 5.31302C13.0285 5.03753 12.839 4.41753 13.3985 3.11698C13.588 2.68649 13.9064 1.77345 14.6039 1.33448L13.8374 0.688446C13.786 0.714481 13.743 0.748993 13.7085 0.782899C13.3724 1.21339 13.08 1.68686 12.813 2.16095C12.5635 2.61747 12.3395 3.08247 12.15 3.56442C12.0035 3.94345 11.7885 4.52046 11.7364 5.06296C11.6759 5.67448 11.8224 6.24241 12.4854 6.441C12.5284 6.45796 12.5799 6.46704 12.6404 6.48399C13.0279 6.57845 13.7684 6.65595 15.4474 6.20003L15.3105 5.38204Z" fill="url(#paint7_linear_76_749)"/>
<path d="M23.2331 2.0235L22.036 2.15246V2.16094C22.036 2.23844 21.9931 2.29899 21.9325 2.35893C21.9065 2.38496 21.872 2.41947 21.8205 2.45338C21.416 2.78942 20.2099 3.65887 17.9285 4.52893C17.3776 4.74447 16.7315 4.98545 16.034 5.19192C15.7931 5.26094 15.543 5.32996 15.2935 5.3899C15.2245 5.40686 15.147 5.42442 15.078 5.44137C14.768 5.51039 14.0445 5.6224 13.5449 5.38082L12.5114 6.45735C12.5544 6.46582 12.5974 6.48338 12.6495 6.49186C13.037 6.58631 13.7774 6.66381 15.4564 6.20789C16.2145 6.00143 17.1699 5.69143 18.3669 5.21735C20.4164 4.41631 22.8104 3.04735 23.2324 2.08283C23.2331 2.06649 23.2415 2.04106 23.2331 2.0235Z" fill="url(#paint8_linear_76_749)"/>
<path d="M7.07856 9.50646C7.0271 9.50646 6.9496 9.48951 6.82911 9.42049C5.40808 8.55103 4.53015 7.45695 4.53015 6.2775C4.53015 4.15049 7.28563 2.31652 11.2121 1.51549C11.4706 1.46402 11.6601 1.46402 11.7201 1.53244C11.7286 1.54092 11.737 1.54939 11.737 1.55848L13.442 0.697499C13.4336 0.662987 13.3906 0.65451 13.33 0.65451C11.048 0.878534 8.95552 1.44646 7.28503 2.29049C5.14106 3.37549 3.96948 4.78744 3.96948 6.26902C3.96948 7.7506 5.14894 9.16256 7.28503 10.2476C7.37948 10.299 7.47454 10.342 7.56899 10.3856C7.62954 10.4116 7.68948 10.4116 7.73247 10.3941L7.14698 9.46408C7.13851 9.49799 7.11308 9.49799 7.07856 9.50646Z" fill="url(#paint9_linear_76_749)"/>
<path d="M18.798 6.10558C18.3245 5.95906 17.1705 5.66662 12.925 7.32863C10.8754 8.12967 8.48142 9.49863 8.05941 10.4631C8.04245 10.4977 8.04245 10.5322 8.05941 10.5576L9.27337 10.4195C9.27337 10.4111 9.27337 10.4026 9.27337 10.385C9.27337 10.3075 9.31636 10.247 9.36782 10.187C9.39386 10.161 9.42837 10.1356 9.47984 10.0926C9.87581 9.75656 11.0989 8.87863 13.3718 8.01705C14.1728 7.71553 15.1712 7.32803 16.2223 7.11308C16.8423 6.98412 19.1159 6.63961 17.9104 9.42961C17.7124 9.88613 17.3679 10.8591 16.6014 11.2727L17.4539 11.8666C17.5053 11.8406 17.5483 11.8061 17.5743 11.7722C17.9104 11.3417 18.2028 10.8682 18.4698 10.3941C18.7193 9.9376 18.9433 9.4726 19.1328 8.99064C19.2793 8.61162 19.4943 8.03461 19.5464 7.49211C19.6075 6.88058 19.4695 6.31205 18.798 6.10558Z" fill="url(#paint10_linear_76_749)"/>
<path d="M16.5765 11.289C16.3356 11.4095 16.034 11.461 15.767 11.47C15.7065 11.4785 15.6635 11.47 15.6465 11.47C13.416 11.47 11.3326 11.16 9.59307 10.6345C9.57612 10.626 9.5416 10.6085 9.5416 10.6085C9.3866 10.557 9.3091 10.4964 9.29215 10.4189L8.07819 10.557C8.10422 10.6085 8.16416 10.6514 8.25014 10.686C10.3426 11.5385 12.9262 12.0035 15.6556 12.0035C16.0861 12.0035 16.5166 11.995 16.9471 11.9689C17.1881 11.952 17.3515 11.9175 17.4726 11.8569L16.6201 11.263C16.5935 11.2721 16.585 11.2805 16.5765 11.289Z" fill="url(#paint11_linear_76_749)"/>
<path d="M19.5991 10.8331C19.6251 10.7901 19.6505 10.7471 19.7026 10.6865C21.8466 8.17202 23.4741 4.4605 23.9391 3.38458C23.9736 3.31556 24.0081 3.23806 24.0426 3.19507C24.0771 3.13452 24.1201 3.08306 24.1806 3.05702L23.5606 2.1355C23.5261 2.15245 23.4916 2.17849 23.4831 2.213C22.2001 4.96001 20.8312 7.46604 19.1347 9.95452C18.7211 10.5576 18.2822 11.1431 17.8777 11.7631C17.8432 11.8145 17.8432 11.849 17.8692 11.8666L19.5912 11.0056C19.5561 10.9705 19.5561 10.9106 19.5991 10.8331Z" fill="url(#paint12_linear_76_749)"/>
<path d="M14.742 1.25757C14.9829 1.13708 15.2845 1.08562 15.5515 1.07653C15.612 1.07653 15.655 1.07653 15.672 1.07653C17.9025 1.07653 19.9775 1.38653 21.7254 1.92056C21.7424 1.92056 21.7769 1.93751 21.7945 1.93751C21.9495 1.98898 22.027 2.058 22.0354 2.14398L23.2325 2.01501C23.2155 1.95446 23.1465 1.903 23.0514 1.86001C20.9589 1.00751 18.3754 0.542511 15.6459 0.542511C15.2154 0.542511 14.785 0.550988 14.3545 0.577023C14.122 0.593976 13.95 0.628487 13.8289 0.689034L14.5954 1.33507C14.6475 1.30903 14.699 1.283 14.742 1.25757Z" fill="url(#paint13_linear_76_749)"/>
<path d="M27.323 6.27752C27.323 4.79654 26.1435 3.38399 24.0074 2.29899C23.913 2.24752 23.8179 2.20453 23.7235 2.16094C23.6629 2.1349 23.603 2.1349 23.56 2.15246L24.18 3.07399C24.197 3.06551 24.2145 3.06551 24.2405 3.06551C24.3011 3.05703 24.3695 3.07399 24.49 3.14301C25.911 4.02154 26.7545 5.10654 26.7545 6.286C26.7545 6.32899 26.7545 6.37197 26.7545 6.40649H27.3315C27.323 6.3635 27.323 6.32051 27.323 6.27752Z" fill="url(#paint14_linear_76_749)"/>
<path d="M26.746 6.38953C26.6424 8.46507 23.9299 10.256 20.0725 11.0395C19.823 11.091 19.6505 11.091 19.599 11.0226C19.5905 11.0141 19.5905 11.0141 19.5905 11.0056L17.8686 11.8666C17.8855 11.8835 17.9201 11.8926 17.9721 11.8926C20.2541 11.6686 22.3466 11.1007 24.0171 10.2567C26.1012 9.19769 27.2721 7.82812 27.3327 6.39013L26.746 6.38953Z" fill="url(#paint15_linear_76_749)"/>
<path d="M23.233 2.02352C23.2161 1.96297 23.1471 1.91151 23.052 1.86852C22.768 1.75651 22.475 1.64449 22.1825 1.54156L21.6661 1.90303C21.683 1.91151 21.7091 1.91151 21.7266 1.91998C21.7436 1.91998 21.7781 1.93694 21.7956 1.93694C21.9506 1.9884 22.0281 2.05742 22.0366 2.1434V2.15188C22.0366 2.22938 21.9936 2.28992 21.9331 2.34987C21.9071 2.3759 21.8725 2.41041 21.8211 2.44432C21.7866 2.47035 21.7521 2.49578 21.7091 2.5303L22.7335 2.71133C22.966 2.48731 23.1295 2.28084 23.2155 2.08285C23.233 2.06651 23.2415 2.04108 23.233 2.02352Z" fill="url(#paint16_linear_76_749)"/>
<path d="M9.59302 10.6351C9.48948 10.5921 9.31753 10.5491 9.29149 10.4195C9.29149 10.4111 9.29149 10.4026 9.29149 10.385C9.29149 10.3075 9.33448 10.247 9.38595 10.187C9.41198 10.161 9.44649 10.1356 9.49796 10.0926C9.53247 10.0581 9.57546 10.0236 9.62692 9.98906L8.63638 9.75656C8.36937 10.006 8.17138 10.2385 8.07692 10.4625C8.05997 10.497 8.05997 10.5316 8.07692 10.557C8.10296 10.6085 8.1629 10.6514 8.24888 10.686C8.50741 10.7895 8.7829 10.8924 9.05839 10.9875L9.68687 10.6514C9.64448 10.652 9.61845 10.6436 9.59302 10.6351Z" fill="url(#paint17_linear_76_749)"/>
<path d="M24.008 2.29899C23.9136 2.24752 23.8185 2.20453 23.7241 2.16094C23.6635 2.1349 23.6036 2.1349 23.5606 2.15246C23.5261 2.16942 23.4916 2.19545 23.4831 2.22996C23.3796 2.45399 23.2766 2.66893 23.1731 2.88448L23.9051 3.50447C23.9221 3.46996 23.9396 3.43545 23.9481 3.40094C23.9826 3.33192 24.0171 3.25442 24.0516 3.21143C24.0861 3.15088 24.1291 3.09942 24.1897 3.07338C24.2066 3.0649 24.2242 3.0649 24.2502 3.0649C24.3108 3.05643 24.3792 3.07338 24.4997 3.1424C24.5427 3.16844 24.5941 3.20295 24.6377 3.22838L24.6983 2.6774C24.464 2.54057 24.2405 2.42008 24.008 2.29899Z" fill="url(#paint18_linear_76_749)"/>
<path d="M14.3545 0.585507C14.122 0.60246 13.95 0.636972 13.8289 0.697519C13.7775 0.723554 13.7345 0.758065 13.7 0.791972C13.5534 0.981483 13.416 1.171 13.2864 1.36898L14.0184 1.88545C14.1734 1.67898 14.363 1.481 14.587 1.34295C14.63 1.31691 14.6814 1.29148 14.7335 1.26545C14.8885 1.18795 15.0605 1.14496 15.233 1.11045V0.550995C14.9491 0.550995 14.656 0.568553 14.3545 0.585507Z" fill="url(#paint19_linear_76_749)"/>
<path d="M16.6019 11.272C16.5935 11.2805 16.585 11.2805 16.5674 11.289C16.3265 11.4095 16.0249 11.4609 15.7579 11.47C15.6974 11.4785 15.6544 11.47 15.6374 11.47C15.2239 11.47 14.811 11.4531 14.4144 11.4355L14.3109 11.978C14.7498 12.004 15.1979 12.0125 15.6453 12.0125C16.0758 12.0125 16.5063 12.004 16.9368 11.978C17.1777 11.9611 17.3412 11.9265 17.4623 11.866C17.5138 11.84 17.5568 11.8055 17.5828 11.7715C17.9188 11.3411 18.2113 10.8676 18.4783 10.3935C18.5043 10.3505 18.5213 10.3075 18.5473 10.2645L17.7638 9.80801C17.5495 10.2906 17.205 10.9536 16.6019 11.272Z" fill="url(#paint20_linear_76_749)"/>
<path d="M11.737 1.55851C11.7539 1.6015 11.7539 1.65297 11.72 1.72199C11.694 1.76498 11.6686 1.80797 11.6165 1.86851C9.47254 4.38302 7.84504 8.09455 7.38852 9.16199C7.35401 9.23949 7.31949 9.30851 7.29407 9.35998C7.25955 9.41144 7.22504 9.45443 7.1651 9.48047L7.75059 10.4105C7.7851 10.3935 7.81961 10.3675 7.82809 10.333C9.11108 7.58595 10.48 5.07992 12.1766 2.59144C12.5901 1.98839 13.0291 1.40291 13.4335 0.782906C13.4596 0.748395 13.4596 0.713883 13.4505 0.69693L11.737 1.55851Z" fill="url(#paint21_linear_76_749)"/>
<path d="M7.51751 8.86105C7.46604 8.98154 7.42305 9.0766 7.38854 9.16258C7.35403 9.24008 7.31952 9.3091 7.29409 9.36057C7.25958 9.41203 7.22507 9.45502 7.16512 9.48105C7.13909 9.48953 7.11366 9.49801 7.08762 9.49801C7.03616 9.49801 6.95866 9.48105 6.83817 9.41203C6.72616 9.34301 6.61415 9.27398 6.50214 9.19648L6.5536 9.84252C6.7861 9.98904 7.03555 10.1265 7.29409 10.2561C7.38854 10.3075 7.4836 10.3505 7.57805 10.3941C7.6386 10.4201 7.69854 10.4201 7.74153 10.4026C7.77604 10.3856 7.81055 10.3596 7.81903 10.3251C7.97403 9.99812 8.12903 9.67057 8.28403 9.35209L7.51751 8.86105Z" fill="url(#paint22_linear_76_749)"/>
<path d="M13.442 0.705983C13.4335 0.671471 13.3905 0.662994 13.33 0.662994C12.6755 0.732018 12.0295 0.826471 11.4185 0.938482L10.9965 1.56696C11.0655 1.55001 11.143 1.53245 11.2121 1.52397C11.4706 1.47251 11.6601 1.47251 11.7201 1.54092C11.7285 1.5494 11.737 1.55788 11.737 1.56696C11.754 1.60995 11.754 1.66141 11.7201 1.73044C11.694 1.77342 11.6686 1.81641 11.6165 1.87696C11.5996 1.89391 11.5905 1.90299 11.582 1.91995H12.6501C12.9171 1.5494 13.1756 1.17946 13.4251 0.800436C13.4505 0.758053 13.4505 0.723541 13.442 0.705983Z" fill="url(#paint23_linear_76_749)"/>
<path d="M15.638 0.103546C8.95607 0.103546 3.53107 2.86751 3.53107 6.27751C3.53107 9.68751 8.94759 12.4606 15.638 12.4606C22.32 12.4606 27.745 9.69659 27.745 6.27751C27.745 2.86751 22.3284 0.103546 15.638 0.103546ZM24.0165 10.2906C21.7859 11.427 18.8155 12.0561 15.6465 12.0561C12.4775 12.0561 9.50704 11.4276 7.2765 10.2906C5.13253 9.19708 3.95247 7.77605 3.95247 6.28659C3.95247 4.79714 5.13193 3.37611 7.2765 2.28263C9.50704 1.14616 12.4775 0.517081 15.6465 0.517081C18.8155 0.517081 21.7859 1.14556 24.0165 2.28263C26.1605 3.37611 27.3405 4.79714 27.3405 6.28659C27.3405 7.77605 26.1605 9.19648 24.0165 10.2906Z" fill="url(#paint24_linear_76_749)"/>
<path d="M15.3105 5.38204C15.2414 5.399 15.1639 5.41656 15.0949 5.43351C14.7589 5.50253 13.9585 5.6315 13.4589 5.31302C13.1659 5.12351 12.9855 4.77052 13.0799 4.159L11.823 4.61552C11.7885 4.77052 11.7624 4.92552 11.7455 5.08052C11.6849 5.69204 11.8315 6.25997 12.4944 6.45857C12.5374 6.47552 12.5889 6.4846 12.6494 6.50156C13.0369 6.59601 13.7859 6.67351 15.4564 6.21759C15.6283 6.1746 15.8179 6.11406 16.0074 6.06259L16.0504 5.20161C15.81 5.26156 15.5605 5.33058 15.3105 5.38204Z" fill="url(#paint25_linear_76_749)"/>
<path d="M19.5469 7.4915C19.6075 6.87998 19.461 6.31205 18.798 6.11345C18.3844 5.98449 17.446 5.74291 14.3635 6.81095L14.458 7.62894C15.009 7.43943 15.612 7.24992 16.232 7.12096C16.8175 7.00047 18.867 6.68199 18.092 8.98943L19.2285 8.75693C19.358 8.3876 19.504 7.93107 19.5469 7.4915Z" fill="url(#paint26_linear_76_749)"/>
<path d="M19.091 6.23453L17.7905 7.19056C17.98 7.2941 18.135 7.4491 18.2125 7.69007L19.4955 6.73404C19.418 6.54453 19.289 6.36349 19.091 6.23453Z" fill="url(#paint27_linear_76_749)"/>
<path d="M20.0725 11.0395C19.8231 11.091 19.6505 11.091 19.599 11.0226C19.5906 11.0141 19.5906 11.0141 19.5906 11.0056C19.5645 10.9626 19.5561 10.9021 19.599 10.8246C19.6251 10.7816 19.6505 10.7386 19.7026 10.6781C19.7801 10.5836 19.8661 10.4886 19.9436 10.385L18.9191 10.247C18.5661 10.7465 18.2047 11.2375 17.8771 11.7455C17.8426 11.797 17.8426 11.8315 17.8686 11.849C17.8856 11.866 17.9201 11.8751 17.9721 11.8751C18.7732 11.7976 19.5482 11.6686 20.2972 11.5136V10.9796C20.219 11.0135 20.15 11.0311 20.0725 11.0395Z" fill="url(#paint28_linear_76_749)"/>
<path d="M13.3131 6.6051C12.865 6.6051 12.6156 6.5276 12.4866 6.48461C11.9011 6.30358 11.6341 5.8301 11.7116 5.07266C11.7631 4.56467 11.9526 4.03065 12.1251 3.56565C12.3062 3.10065 12.5211 2.64412 12.7881 2.15369C13.1066 1.58516 13.3912 1.14619 13.6836 0.767171C13.7956 0.629125 14.0021 0.569183 14.3551 0.543148C14.7856 0.517113 15.2245 0.508636 15.6465 0.508636C18.3851 0.508636 20.9511 0.96516 23.0696 1.83461C23.1301 1.86065 23.3281 1.9551 23.2591 2.1101C22.8371 3.08309 20.4261 4.46114 18.3766 5.26157C16.1031 6.14858 14.4065 6.6051 13.3131 6.6051ZM15.6465 0.585531C15.2245 0.585531 14.794 0.594007 14.3636 0.620042C14.0275 0.636996 13.838 0.697543 13.7436 0.818031C13.4505 1.18858 13.175 1.62754 12.8565 2.19608C12.5895 2.67803 12.3746 3.13455 12.1936 3.59955C12.0815 3.90108 11.8406 4.52108 11.78 5.08901C11.711 5.81254 11.952 6.25998 12.5036 6.43254C12.6325 6.47553 12.8826 6.54455 13.3131 6.54455C14.3896 6.54455 16.0861 6.09651 18.3506 5.20102C20.3916 4.40907 22.7765 3.04797 23.1901 2.09254C23.207 2.04955 23.207 1.98901 23.0351 1.91151C20.9335 1.03358 18.376 0.585531 15.6465 0.585531Z" fill="url(#paint29_linear_76_749)"/>
<path d="M12.667 1.82551C12.4951 2.06649 12.314 2.32502 12.1415 2.57448C10.6084 4.83045 9.27398 7.18149 7.95648 9.96301L8.01703 9.98905C9.32605 7.216 10.6605 4.85709 12.1936 2.60959C12.3655 2.36014 12.5465 2.10161 12.7191 1.86063C12.8911 1.61965 13.0721 1.36959 13.2356 1.12014L13.1581 1.11166C13.0031 1.35203 12.8305 1.59301 12.667 1.82551Z" fill="url(#paint30_linear_76_749)"/>
<path d="M18.6261 10.738C18.798 10.4885 18.9791 10.2385 19.1516 9.98904C20.6671 7.75849 21.9931 5.42501 23.3021 2.678L23.2246 2.66953C21.9241 5.40806 20.6066 7.73306 19.0911 9.95453C18.9191 10.204 18.7381 10.4625 18.5655 10.7035C18.4105 10.9275 18.247 11.1515 18.092 11.375H18.178C18.333 11.16 18.4795 10.9451 18.6261 10.738Z" fill="url(#paint31_linear_76_749)"/>
<path d="M15.6466 12.0555C12.908 12.0555 10.3421 11.599 8.22352 10.7295C8.16297 10.7035 7.96499 10.609 8.03401 10.454C8.45602 9.48106 10.867 8.10301 12.9165 7.30258C15.19 6.40709 16.886 5.95905 17.98 5.95905C18.4281 5.95905 18.6775 6.03654 18.8065 6.07953C19.392 6.26057 19.659 6.73404 19.5815 7.50057C19.53 8.00856 19.3405 8.55106 19.168 9.00758C18.9954 9.4641 18.772 9.93758 18.505 10.4111C18.1865 10.9796 17.9019 11.4186 17.6095 11.7976C17.4975 11.9356 17.291 11.9956 16.938 12.0216C16.5075 12.0386 16.0771 12.0555 15.6466 12.0555ZM17.98 6.03655C16.9035 6.03655 15.207 6.48459 12.9425 7.371C10.9015 8.16295 8.51657 9.52405 8.10303 10.4795C8.08608 10.5225 8.08608 10.583 8.25803 10.6605C10.359 11.5215 12.9165 11.978 15.655 11.978C16.0855 11.978 16.516 11.9695 16.938 11.9435C17.2741 11.9265 17.4636 11.866 17.558 11.7455C17.8511 11.375 18.1266 10.936 18.445 10.3675C18.7121 9.89399 18.9361 9.42051 19.108 8.97246C19.28 8.51594 19.4695 7.991 19.5125 7.48301C19.5815 6.75947 19.3405 6.31203 18.789 6.13947C18.6606 6.10557 18.4105 6.03655 17.98 6.03655Z" fill="url(#paint32_linear_76_749)"/>
<path d="M13.4765 0.680573C13.4596 0.654537 13.4251 0.620026 13.3476 0.620026H13.3391C11.0401 0.852526 8.94763 1.42106 7.28562 2.26448C5.13257 3.35796 3.94464 4.77899 3.94464 6.27753C3.94464 7.77606 5.13318 9.19649 7.28562 10.2906C7.38007 10.342 7.47513 10.385 7.56958 10.4286C7.60409 10.4456 7.64708 10.4547 7.68159 10.4547C7.75909 10.4547 7.82812 10.4117 7.86263 10.3426C7.92318 10.2222 7.97464 10.1017 8.03458 9.98118L7.97404 9.95514C7.91349 10.0756 7.86202 10.1961 7.80208 10.3166C7.77605 10.3772 7.69007 10.4026 7.60409 10.3596C7.50964 10.3166 7.41458 10.2651 7.32013 10.2215C5.19312 9.14503 4.02214 7.74155 4.02214 6.26905C4.02214 4.80503 5.19312 3.40155 7.32013 2.31655C8.97367 1.47253 11.0662 0.913072 13.3567 0.680573C13.3996 0.680573 13.4172 0.689049 13.4257 0.697526C13.4342 0.706003 13.4257 0.732038 13.4087 0.758073C13.3312 0.870085 13.2622 0.982096 13.1847 1.10258L13.2622 1.11106C13.3312 1.00753 13.4002 0.904596 13.4687 0.801061C13.4935 0.748991 13.485 0.706002 13.4765 0.680573Z" fill="url(#paint33_linear_76_749)"/>
<path d="M24.025 2.27355C23.9306 2.22209 23.8355 2.1791 23.741 2.13551C23.6206 2.08404 23.4916 2.11855 23.448 2.22148C23.379 2.37648 23.31 2.52301 23.2325 2.66953L23.31 2.67801C23.379 2.53996 23.448 2.39404 23.5164 2.24752C23.5334 2.20453 23.577 2.1785 23.6284 2.1785C23.6545 2.1785 23.6799 2.18697 23.7144 2.19545C23.8089 2.23844 23.9039 2.2899 23.9984 2.3335C26.1254 3.41002 27.2964 4.81349 27.2964 6.28599C27.2964 7.75002 26.1254 9.15349 23.9984 10.2385C22.3448 11.074 20.2699 11.642 17.9964 11.8745C17.9449 11.8829 17.8583 11.8745 17.9104 11.797C18.0048 11.6589 18.0999 11.513 18.1943 11.375H18.1084C18.0224 11.5039 17.9364 11.6244 17.8498 11.754C17.8068 11.8145 17.8153 11.8575 17.8329 11.8829C17.8674 11.952 17.9618 11.9435 18.0224 11.9344C20.3044 11.7019 22.3793 11.1334 24.0329 10.2984C26.1859 9.20496 27.3739 7.78392 27.3739 6.28539C27.3575 4.78807 26.1781 3.36703 24.025 2.27355Z" fill="url(#paint34_linear_76_749)"/>
</g>
<defs>
<radialGradient id="paint0_radial_76_749" cx="0" cy="0" r="1" gradientUnits="userSpaceOnUse" gradientTransform="translate(16.3282 2.29957) scale(11.5035)">
<stop stop-color="#8B9394"/>
<stop offset="1" stop-color="#727A79"/>
</radialGradient>
<radialGradient id="paint1_radial_76_749" cx="0" cy="0" r="1" gradientUnits="userSpaceOnUse" gradientTransform="translate(15.6743 0.0702028) scale(14.2891 14.3066)">
<stop stop-color="#969D9D"/>
<stop offset="0.6135" stop-color="#7A8182"/>
<stop offset="1" stop-color="#4B5050"/>
</radialGradient>
<radialGradient id="paint2_radial_76_749" cx="0" cy="0" r="1" gradientUnits="userSpaceOnUse" gradientTransform="translate(11.0924 1.81032) scale(11.7955 11.7955)">
<stop stop-color="#969D9D"/>
<stop offset="0.4601" stop-color="#828B8A"/>
<stop offset="1" stop-color="#C2C9C8"/>
</radialGradient>
<radialGradient id="paint3_radial_76_749" cx="0" cy="0" r="1" gradientUnits="userSpaceOnUse" gradientTransform="translate(16.1814 7.43739) scale(6.56224)">
<stop stop-color="#969D9D"/>
<stop offset="0.6135" stop-color="#828B8A"/>
<stop offset="1" stop-color="#727A79"/>
</radialGradient>
<radialGradient id="paint4_radial_76_749" cx="0" cy="0" r="1" gradientUnits="userSpaceOnUse" gradientTransform="translate(24.3041 4.50172) scale(9.44409 9.44408)">
<stop stop-color="#969D9D"/>
<stop offset="0.6135" stop-color="#828B8A"/>
<stop offset="1" stop-color="#727A79"/>
</radialGradient>
<linearGradient id="paint5_linear_76_749" x1="15.341" y1="0.61547" x2="15.9392" y2="12.0293" gradientUnits="userSpaceOnUse">
<stop stop-color="white"/>
<stop offset="0.4" stop-color="white"/>
<stop offset="0.5706" stop-color="#A4AAAA"/>
<stop offset="0.6257" stop-color="#8F9697"/>
<stop offset="0.6626" stop-color="#878F90"/>
<stop offset="0.75" stop-color="#969D9D"/>
<stop offset="0.81" stop-color="white"/>
</linearGradient>
<linearGradient id="paint6_linear_76_749" x1="17.9163" y1="11.8326" x2="19.0239" y2="7.50265" gradientUnits="userSpaceOnUse">
<stop stop-color="white"/>
<stop offset="0.6258" stop-color="white"/>
<stop offset="0.6768" stop-color="#F1F2F2"/>
<stop offset="0.8952" stop-color="#B7BDBE"/>
<stop offset="1" stop-color="#A0A8AA"/>
</linearGradient>
<linearGradient id="paint7_linear_76_749" x1="14.4808" y1="5.86684" x2="12.2524" y2="1.89578" gradientUnits="userSpaceOnUse">
<stop stop-color="#E5EEED"/>
<stop offset="0.2776" stop-color="#CFD7D7"/>
<stop offset="0.5521" stop-color="#B6BCBD"/>
<stop offset="1" stop-color="#A0A8AA"/>
</linearGradient>
<linearGradient id="paint8_linear_76_749" x1="16.4218" y1="2.16107" x2="18.3026" y2="4.85799" gradientUnits="userSpaceOnUse">
<stop stop-color="#E5EEED"/>
<stop offset="0.2776" stop-color="#CFD7D7"/>
<stop offset="0.5521" stop-color="#B6BCBD"/>
<stop offset="1" stop-color="#A0A8AA"/>
</linearGradient>
<linearGradient id="paint9_linear_76_749" x1="8.70586" y1="8.47932" x2="8.70586" y2="2.32852" gradientUnits="userSpaceOnUse">
<stop stop-color="white"/>
<stop offset="0.0629" stop-color="#F6F7F7"/>
<stop offset="0.1635" stop-color="#DFE1E1"/>
<stop offset="0.2891" stop-color="#B9BCBC"/>
<stop offset="0.4336" stop-color="#858A8A"/>
<stop offset="0.5276" stop-color="#5F6666"/>
<stop offset="0.773" stop-color="#4B5050"/>
<stop offset="1" stop-color="#404444"/>
</linearGradient>
<linearGradient id="paint10_linear_76_749" x1="19.1141" y1="9.78357" x2="12.3171" y2="8.04483" gradientUnits="userSpaceOnUse">
<stop stop-color="#8B9394"/>
<stop offset="0.1758" stop-color="#7A8182"/>
<stop offset="0.3399" stop-color="#646A6B"/>
<stop offset="0.5698" stop-color="#404444"/>
<stop offset="1" stop-color="#333737"/>
</linearGradient>
<linearGradient id="paint11_linear_76_749" x1="8.07724" y1="11.2118" x2="17.472" y2="11.2118" gradientUnits="userSpaceOnUse">
<stop stop-color="white"/>
<stop offset="0.9331" stop-color="white"/>
<stop offset="1" stop-color="white"/>
</linearGradient>
<linearGradient id="paint12_linear_76_749" x1="23.7328" y1="3.27029" x2="18.868" y2="10.7983" gradientUnits="userSpaceOnUse">
<stop stop-color="#ABB3B3"/>
<stop offset="0.3804" stop-color="#727A79"/>
<stop offset="0.4174" stop-color="#575D5C"/>
<stop offset="0.4495" stop-color="#464A4A"/>
<stop offset="0.4724" stop-color="#404444"/>
<stop offset="1" stop-color="#333737"/>
</linearGradient>
<linearGradient id="paint13_linear_76_749" x1="22.0924" y1="1.77267" x2="14.7535" y2="0.783566" gradientUnits="userSpaceOnUse">
<stop stop-color="#4B5050"/>
<stop offset="0.1082" stop-color="#434747"/>
<stop offset="0.3852" stop-color="#323534"/>
<stop offset="0.6758" stop-color="#282A2A"/>
<stop offset="1" stop-color="#252726"/>
</linearGradient>
<linearGradient id="paint14_linear_76_749" x1="24.3882" y1="2.05648" x2="26.7136" y2="5.9214" gradientUnits="userSpaceOnUse">
<stop stop-color="#252726"/>
<stop offset="0.0676" stop-color="#2B2E2D"/>
<stop offset="0.3252" stop-color="#404444"/>
<stop offset="0.4324" stop-color="#4A4F4F"/>
<stop offset="0.6933" stop-color="#5F6666"/>
<stop offset="0.7433" stop-color="#666D6D"/>
<stop offset="0.8172" stop-color="#798181"/>
<stop offset="0.8712" stop-color="#8B9394"/>
<stop offset="1" stop-color="#A0A8AA"/>
</linearGradient>
<linearGradient id="paint15_linear_76_749" x1="19.7958" y1="11.8025" x2="27.0556" y2="7.26715" gradientUnits="userSpaceOnUse">
<stop stop-color="white"/>
<stop offset="0.7669" stop-color="white"/>
<stop offset="0.8338" stop-color="#E8EBEB"/>
<stop offset="0.9018" stop-color="#CCD4D3"/>
<stop offset="0.9599" stop-color="#AFB7B8"/>
<stop offset="1" stop-color="#A0A8AA"/>
</linearGradient>
<linearGradient id="paint16_linear_76_749" x1="22.4342" y1="1.95529" x2="22.4757" y2="2.3134" gradientUnits="userSpaceOnUse">
<stop stop-color="#4B5050"/>
<stop offset="0.0835" stop-color="#6D7373"/>
<stop offset="0.1678" stop-color="#888F8F"/>
<stop offset="0.2527" stop-color="#9CA3A3"/>
<stop offset="0.3378" stop-color="#A7AFAF"/>
<stop offset="0.4233" stop-color="#ABB3B3"/>
<stop offset="0.5767" stop-color="#ABB3B3"/>
<stop offset="0.919" stop-color="#A3ABAC"/>
<stop offset="1" stop-color="#A0A8AA"/>
</linearGradient>
<linearGradient id="paint17_linear_76_749" x1="8.83475" y1="10.1552" x2="8.91216" y2="10.8481" gradientUnits="userSpaceOnUse">
<stop stop-color="#333737"/>
<stop offset="0.0158" stop-color="#494E4E"/>
<stop offset="0.0411" stop-color="#676E6D"/>
<stop offset="0.0552" stop-color="#727A79"/>
<stop offset="0.2185" stop-color="#808888"/>
<stop offset="0.3988" stop-color="#8B9394"/>
<stop offset="0.4757" stop-color="#9BA3A4"/>
<stop offset="0.4969" stop-color="#A0A8AA"/>
<stop offset="0.7853" stop-color="#ABB3B3"/>
<stop offset="0.8536" stop-color="#C2C8C8"/>
<stop offset="0.9966" stop-color="#FDFEFE"/>
<stop offset="1" stop-color="white"/>
</linearGradient>
<linearGradient id="paint18_linear_76_749" x1="23.7187" y1="2.92821" x2="24.2017" y2="2.62547" gradientUnits="userSpaceOnUse">
<stop stop-color="#ABB3B3"/>
<stop offset="0.4172" stop-color="#A0A8AA"/>
<stop offset="0.5215" stop-color="#A0A8AA"/>
<stop offset="0.5931" stop-color="#9BA3A5"/>
<stop offset="0.68" stop-color="#8D9496"/>
<stop offset="0.7748" stop-color="#777D7D"/>
<stop offset="0.8753" stop-color="#575B5B"/>
<stop offset="0.9792" stop-color="#2E3030"/>
<stop offset="1" stop-color="#252726"/>
</linearGradient>
<linearGradient id="paint19_linear_76_749" x1="14.6227" y1="0.784585" x2="13.8836" y2="1.57567" gradientUnits="userSpaceOnUse">
<stop stop-color="#252726"/>
<stop offset="0.0228" stop-color="#2D302F"/>
<stop offset="0.1422" stop-color="#565B5B"/>
<stop offset="0.2495" stop-color="#73797A"/>
<stop offset="0.3399" stop-color="#858C8D"/>
<stop offset="0.4026" stop-color="#8B9394"/>
<stop offset="0.8123" stop-color="#98A0A2"/>
<stop offset="1" stop-color="#A0A8AA"/>
</linearGradient>
<linearGradient id="paint20_linear_76_749" x1="17.2312" y1="9.91984" x2="15.7166" y2="11.9942" gradientUnits="userSpaceOnUse">
<stop stop-color="#828B8A"/>
<stop offset="0.515" stop-color="#F4FAFC"/>
<stop offset="0.8083" stop-color="#F8FCFD"/>
<stop offset="1" stop-color="white"/>
</linearGradient>
<linearGradient id="paint21_linear_76_749" x1="8.40712" y1="9.60304" x2="11.2887" y2="2.80027" gradientUnits="userSpaceOnUse">
<stop stop-color="#697070"/>
<stop offset="0.5276" stop-color="#828B8A"/>
<stop offset="1" stop-color="#B2BCBC"/>
</linearGradient>
<linearGradient id="paint22_linear_76_749" x1="7.65419" y1="9.40914" x2="6.80901" y2="10.0321" gradientUnits="userSpaceOnUse">
<stop stop-color="#697070"/>
<stop offset="0.0762" stop-color="#8B9191"/>
<stop offset="0.2002" stop-color="#BDC0C0"/>
<stop offset="0.3091" stop-color="#E1E2E2"/>
<stop offset="0.3974" stop-color="#F7F7F7"/>
<stop offset="0.454" stop-color="white"/>
<stop offset="0.6348" stop-color="white"/>
<stop offset="0.6442" stop-color="white"/>
<stop offset="0.9824" stop-color="white"/>
<stop offset="1" stop-color="white"/>
</linearGradient>
<linearGradient id="paint23_linear_76_749" x1="12.1626" y1="1.02434" x2="12.4377" y2="1.56472" gradientUnits="userSpaceOnUse">
<stop stop-color="#404444"/>
<stop offset="0.1607" stop-color="#444848"/>
<stop offset="0.3258" stop-color="#4F5454"/>
<stop offset="0.4724" stop-color="#5F6666"/>
<stop offset="0.522" stop-color="#737B7A"/>
<stop offset="0.5706" stop-color="#828B8A"/>
<stop offset="0.7786" stop-color="#A3ACAC"/>
<stop offset="0.908" stop-color="#B2BCBC"/>
</linearGradient>
<linearGradient id="paint24_linear_76_749" x1="15.2229" y1="0.574123" x2="16.0917" y2="12.5195" gradientUnits="userSpaceOnUse">
<stop stop-color="white"/>
<stop offset="0.0755" stop-color="#F8FAFA"/>
<stop offset="0.1828" stop-color="#E6ECED"/>
<stop offset="0.2638" stop-color="#D3DEE0"/>
<stop offset="0.2946" stop-color="#C9D4D6"/>
<stop offset="0.3474" stop-color="#AFB9BA"/>
<stop offset="0.4159" stop-color="#858D8E"/>
<stop offset="0.4969" stop-color="#4B5050"/>
<stop offset="0.6871" stop-color="#3E4344"/>
<stop offset="0.7344" stop-color="#2F3435"/>
<stop offset="0.816" stop-color="#0D1112"/>
<stop offset="1" stop-color="#0D1112"/>
</linearGradient>
<linearGradient id="paint25_linear_76_749" x1="12.5542" y1="4.35849" x2="14.7889" y2="6.37062" gradientUnits="userSpaceOnUse">
<stop offset="0.07" stop-color="#B6BCBD"/>
<stop offset="0.1214" stop-color="#C9CECE"/>
<stop offset="0.2023" stop-color="#E1E3E4"/>
<stop offset="0.2885" stop-color="#F2F3F3"/>
<stop offset="0.3827" stop-color="#FCFCFC"/>
<stop offset="0.5" stop-color="white"/>
<stop offset="0.6129" stop-color="#FCFCFC"/>
<stop offset="0.7036" stop-color="#F2F3F3"/>
<stop offset="0.7865" stop-color="#E1E4E4"/>
<stop offset="0.8644" stop-color="#C9CECE"/>
<stop offset="0.9387" stop-color="#ABB3B3"/>
</linearGradient>
<linearGradient id="paint26_linear_76_749" x1="18.1522" y1="8.65504" x2="16.0931" y2="6.01926" gradientUnits="userSpaceOnUse">
<stop stop-color="#828B8A"/>
<stop offset="0.1227" stop-color="#7A8182"/>
<stop offset="0.1742" stop-color="#6B7272"/>
<stop offset="0.2759" stop-color="#545959"/>
<stop offset="0.3681" stop-color="#454949"/>
<stop offset="0.4417" stop-color="#404444"/>
<stop offset="0.7117" stop-color="#404444"/>
<stop offset="1" stop-color="#333737"/>
</linearGradient>
<linearGradient id="paint27_linear_76_749" x1="18.4736" y1="6.70045" x2="18.8487" y2="7.21625" gradientUnits="userSpaceOnUse">
<stop stop-color="#3E4344"/>
<stop offset="0.017" stop-color="#555A5A"/>
<stop offset="0.0507" stop-color="#7D8081"/>
<stop offset="0.0877" stop-color="#A0A3A3"/>
<stop offset="0.1278" stop-color="#BEBFC0"/>
<stop offset="0.1719" stop-color="#D6D7D7"/>
<stop offset="0.2217" stop-color="#E8E9E9"/>
<stop offset="0.2804" stop-color="#F5F6F6"/>
<stop offset="0.3568" stop-color="#FDFDFD"/>
<stop offset="0.5153" stop-color="white"/>
<stop offset="0.6539" stop-color="#FDFDFD"/>
<stop offset="0.732" stop-color="#F4F5F5"/>
<stop offset="0.7951" stop-color="#E7E8E8"/>
<stop offset="0.8502" stop-color="#D3D5D5"/>
<stop offset="0.9001" stop-color="#B9BDBD"/>
<stop offset="0.9462" stop-color="#9A9F9F"/>
<stop offset="0.9885" stop-color="#757C7C"/>
<stop offset="1" stop-color="#6A7171"/>
</linearGradient>
<linearGradient id="paint28_linear_76_749" x1="18.9343" y1="11.1178" x2="19.1582" y2="11.5764" gradientUnits="userSpaceOnUse">
<stop stop-color="#333737"/>
<stop offset="0.057" stop-color="#5A5F5E"/>
<stop offset="0.1393" stop-color="#8B9191"/>
<stop offset="0.2168" stop-color="#B2BAB9"/>
<stop offset="0.2872" stop-color="#CED6D5"/>
<stop offset="0.3482" stop-color="#DFE8E7"/>
<stop offset="0.3929" stop-color="#E5EEED"/>
<stop offset="0.5373" stop-color="#E9F1F0"/>
<stop offset="0.6811" stop-color="#F5F8F8"/>
<stop offset="0.7607" stop-color="white"/>
</linearGradient>
<linearGradient id="paint29_linear_76_749" x1="17.3196" y1="4.88369" x2="17.9177" y2="0.289306" gradientUnits="userSpaceOnUse">
<stop stop-color="white"/>
<stop offset="0.248" stop-color="#F2F6F6"/>
<stop offset="0.572" stop-color="#E8F0EF"/>
<stop offset="1" stop-color="#E5EEED"/>
</linearGradient>
<linearGradient id="paint30_linear_76_749" x1="13.4239" y1="0.81585" x2="8.22058" y2="9.24755" gradientUnits="userSpaceOnUse">
<stop stop-color="white"/>
<stop offset="0.1338" stop-color="#FCFCFC"/>
<stop offset="0.2307" stop-color="#F3F4F4"/>
<stop offset="0.316" stop-color="#E3E5E5"/>
<stop offset="0.3947" stop-color="#CDD0D0"/>
<stop offset="0.4681" stop-color="#B0B5B5"/>
<stop offset="0.5215" stop-color="#969D9D"/>
<stop offset="1" stop-color="#8B9394"/>
</linearGradient>
<linearGradient id="paint31_linear_76_749" x1="23.3749" y1="2.72132" x2="18.2455" y2="11.4204" gradientUnits="userSpaceOnUse">
<stop stop-color="#D7E0E0"/>
<stop offset="0.0435" stop-color="#C5CDCE"/>
<stop offset="0.101" stop-color="#B4BCBE"/>
<stop offset="0.1727" stop-color="#A9B1B2"/>
<stop offset="0.2732" stop-color="#A2AAAC"/>
<stop offset="0.5521" stop-color="#A0A8AA"/>
<stop offset="0.9367" stop-color="#A0A8AA"/>
<stop offset="1" stop-color="#A0A8AA"/>
</linearGradient>
<linearGradient id="paint32_linear_76_749" x1="8.01985" y1="9.00731" x2="19.1012" y2="9.00731" gradientUnits="userSpaceOnUse">
<stop stop-color="#8B9394"/>
<stop offset="0.2393" stop-color="#8B9394"/>
<stop offset="0.3579" stop-color="#858C8D"/>
<stop offset="0.5264" stop-color="#737A7B"/>
<stop offset="0.5951" stop-color="#6A7171"/>
<stop offset="1" stop-color="#A0A8AA"/>
</linearGradient>
<linearGradient id="paint33_linear_76_749" x1="9.42584" y1="1.49091" x2="6.29171" y2="9.1747" gradientUnits="userSpaceOnUse">
<stop stop-color="white"/>
<stop offset="0.2377" stop-color="#F8FAFA"/>
<stop offset="0.5752" stop-color="#E6EBEB"/>
<stop offset="0.7791" stop-color="#D7E0E0"/>
<stop offset="1" stop-color="#8B9394"/>
</linearGradient>
<linearGradient id="paint34_linear_76_749" x1="25.7475" y1="3.48642" x2="21.2464" y2="11.9561" gradientUnits="userSpaceOnUse">
<stop stop-color="#D7E0E0"/>
<stop offset="0.1641" stop-color="#D1DAD9"/>
<stop offset="0.2552" stop-color="#CCD4D3"/>
<stop offset="1" stop-color="#A0A8AA"/>
</linearGradient>
</defs>
</svg>
