<svg width="34" height="18" viewBox="0 0 34 18" fill="none" xmlns="http://www.w3.org/2000/svg">
<path d="M16.063 17.0486C14.9354 17.022 13.6916 16.9231 12.5906 16.771C7.90168 16.1448 3.97309 14.5338 1.78965 12.3504C0.859297 11.4286 0.277578 10.4086 0.0803516 9.38865C0.0179297 9.05728 0 8.89658 0 8.52935C0 8.17142 0.0179297 8.01005 0.0803516 7.67005C0.214492 6.99869 0.518633 6.31005 0.975508 5.66525C2.0048 4.2156 3.82102 2.91802 6.19238 1.94252C10.1568 0.304938 15.3379 -0.339204 20.3847 0.170796C26.3088 0.770445 31.1857 2.93595 33.1274 5.82662C34.0133 7.15076 34.2284 8.58314 33.7536 9.98763C33.4761 10.8018 32.9481 11.6073 32.2057 12.3504C30.1385 14.4176 26.4875 15.9748 22.1113 16.6635C20.1616 16.9683 18.1389 17.1024 16.063 17.0486ZM18.6489 15.9569C21.0202 15.8135 23.025 15.4648 24.9754 14.8559C26.5233 14.3724 27.973 13.7104 29.074 12.9679C29.6285 12.5921 30.0223 12.2786 30.4612 11.8404C30.9805 11.3211 31.3205 10.8649 31.5888 10.3011C31.8929 9.67486 32.0091 9.18279 32.0091 8.53798C32.0091 7.89384 31.8836 7.37455 31.5709 6.74833C31.3026 6.21111 30.9626 5.74626 30.4526 5.23626C29.7102 4.48455 28.815 3.86697 27.6429 3.28525C25.4502 2.18423 22.703 1.46838 19.643 1.19146C17.9516 1.03939 16.0278 1.03939 14.3271 1.19146C10.0227 1.57595 6.33582 2.8556 4.0541 4.74419C3.76789 4.98591 3.24859 5.50455 3.0341 5.77349C2.26445 6.7397 1.90652 7.78693 1.98688 8.7983C2.07652 9.89931 2.56859 10.8655 3.5348 11.8317C4.26859 12.5655 5.13652 13.1738 6.2641 13.7469C8.8327 15.0445 12.0003 15.7962 15.7137 15.9748C16.1347 15.9927 18.2378 15.9748 18.6489 15.9569ZM6.59547 12.8431C6.57754 12.8345 6.54168 12.8072 6.52375 12.7893C6.48789 12.7448 6.48789 12.7176 6.47926 8.78037L6.47063 4.81591L6.42613 4.76212C6.38164 4.71763 6.36371 4.70833 6.19371 4.70833L6.00578 4.6997V4.44935V4.199L7.34785 4.19037L8.68992 4.18173L8.74371 4.22623L8.7975 4.27072V5.70244C8.7975 7.27759 8.7975 7.21451 8.90508 7.21451C8.9768 7.21451 9.00336 7.18794 9.38852 6.63279C10.4264 5.16521 10.9902 4.369 11.044 4.30591C11.1695 4.17177 11.1157 4.17177 12.422 4.17177H13.594L13.6385 4.21626C13.6923 4.27005 13.7102 4.35041 13.6923 4.40419C13.6744 4.44005 13.173 5.19177 11.3927 7.81349C11.1961 8.0997 11.1423 8.18935 11.1423 8.24314C11.1423 8.28763 11.2678 8.48486 11.8044 9.23658C14.1757 12.5921 14.185 12.6014 14.1937 12.6638C14.2023 12.7176 14.1937 12.7442 14.1578 12.78L14.1133 12.8338L12.8875 12.8424C11.6795 12.8511 11.6616 12.8511 11.572 12.8066C11.5182 12.7886 11.4644 12.7442 11.4378 12.7169C11.4113 12.6904 10.8561 11.9114 10.194 10.9897C9.54059 10.068 8.98609 9.29833 8.96816 9.2897C8.92367 9.25384 8.84266 9.27177 8.81609 9.32556C8.79816 9.36142 8.78953 9.73728 8.78953 11.0528V12.7349L8.74504 12.7886L8.70055 12.8424H7.65332C7.09617 12.8517 6.6134 12.8517 6.59547 12.8431ZM15.893 12.8338C15.8664 12.8159 15.8306 12.7893 15.8127 12.7621C15.7947 12.7262 15.7861 11.8404 15.7861 8.76177V4.81525L15.7323 4.76146C15.6785 4.70767 15.6699 4.70767 15.4999 4.70767H15.3206V4.44802V4.18837H16.6899H18.0771L18.1395 4.24216L18.202 4.29595V8.52005V12.7442L18.1482 12.7979L18.0944 12.8517H17.0206C16.1706 12.8517 15.9468 12.8517 15.893 12.8338ZM19.884 12.8338C19.8302 12.7979 19.8037 12.7621 19.8037 12.6904C19.8037 12.6545 20.0633 11.8404 20.3854 10.8828C20.7075 9.92521 21.2175 8.39521 21.5216 7.48212C21.8257 6.57834 22.1478 5.62076 22.2375 5.36111C22.3271 5.10146 22.3988 4.86904 22.3988 4.84181C22.3988 4.81525 22.3809 4.77009 22.363 4.74353C22.3271 4.70767 22.3092 4.69904 22.1485 4.68974L21.9692 4.68111L21.9605 4.43076L21.9519 4.18041H23.5988C24.6819 4.18041 25.2722 4.18904 25.3167 4.19834C25.3526 4.20697 25.3971 4.23419 25.4064 4.25212C25.4329 4.29662 25.6122 4.84248 26.4802 7.43763C27.8939 11.6617 28.216 12.6366 28.216 12.6724C28.216 12.7349 28.1802 12.8066 28.1264 12.8245C28.0905 12.8424 27.7684 12.8424 27.0526 12.8424C26.1043 12.8424 26.0146 12.8424 25.9609 12.8066C25.925 12.7886 25.8805 12.7528 25.8626 12.7262C25.8446 12.6997 25.7012 12.2786 25.5405 11.7866C24.0464 7.12419 24.0816 7.2497 24.055 7.21384C24.0191 7.16935 23.9926 7.16935 23.9474 7.21384C23.9209 7.2497 23.8578 7.42834 23.0436 9.98763C22.8112 10.7301 22.5516 11.5356 22.4798 11.7686C22.4081 12.0011 22.3098 12.3059 22.2654 12.44C22.185 12.7083 22.1491 12.7714 22.0509 12.8072C21.9692 12.8697 19.9378 12.8697 19.884 12.8338Z" fill="#C41230"/>
</svg>
