<svg width="60" height="9" viewBox="0 0 60 9" fill="none" xmlns="http://www.w3.org/2000/svg">
<path fill-rule="evenodd" clip-rule="evenodd" d="M57.5024 4.2522H53.1026C53.1572 3.78385 53.5462 3.3155 54.2488 3.3155H59.4372V2.41558H54.0109C51.8493 2.41558 50.9623 3.81164 50.9623 5.15212H57.0162C57.2211 5.15212 57.7076 5.1889 57.7076 5.61121C57.7076 6.03378 57.2862 6.07057 56.5621 6.08882H50.2487V2.41558H48.3896V6.08882H44.8442C43.7737 6.08882 43.6554 5.41858 43.6554 5.06058V2.41558H40.2716L37.5149 3.97675L35.0288 2.41558H27.7761C25.6142 2.41558 24.317 3.69203 24.1332 4.80311H25.6283C25.0305 5.14558 24.6072 5.60957 24.3773 6.08719L20.1555 6.08882C19.0854 6.08882 18.9664 5.41858 18.9664 5.06058V2.41558H17.1073V4.92271C17.1073 6.64926 18.5341 6.98901 19.2258 6.98901H34.0891L36.8671 5.40932L39.3859 6.98901H42.3155L38.4132 4.54618L41.6234 2.71855V5.13387C41.6234 6.69476 43.4181 6.98901 43.9151 6.98901H57.4812C58.1515 6.98901 60 6.91545 60 5.66652C60 4.41758 58.6373 4.2522 57.5024 4.2522ZM33.7867 6.08882H26.7925C26.8464 5.62047 27.4519 5.15212 28.1545 5.15212H32.2839V4.2522H26.6411C26.695 3.78385 27.3005 3.3155 28.0031 3.3155H32.7162V2.79212L35.9809 4.84915L33.7867 6.08882ZM7.3736 9C9.81479 9 11.9799 8.27609 13.322 7.16038L12.1126 7.16529C10.9693 7.98211 9.29782 8.49623 7.40343 8.49623C3.8696 8.49623 1.11092 6.70729 1.11092 4.50014C1.11092 1.95459 3.8696 0.504041 7.40343 0.504041C7.62824 0.504586 7.80784 0.592588 7.67314 0.758241C6.93905 1.50913 4.84839 3.9258 4.46707 4.44946C3.7147 5.48179 3.73266 6.75307 5.57574 6.84216H13.3259C13.7219 6.84216 13.8223 6.68441 13.9653 6.51984C14.4762 5.93616 14.7504 5.22747 14.7469 4.50014C14.7456 2.60331 13.1745 1.18164 10.8625 0.482246L10.5046 0.936428C12.4256 1.53855 13.6959 2.75534 13.6959 4.50014C13.6959 4.80311 13.6437 5.09817 13.5449 5.3818C13.4589 5.6281 13.2912 5.83653 12.9734 5.83653H6.78704C5.99458 5.83653 6.30085 5.14204 6.5943 4.80556C7.01987 4.15739 9.35106 1.45818 9.91229 0.955226C10.0553 0.770774 10.4562 0.388793 9.90363 0.242485C9.1147 0.083371 8.26227 0 7.37328 0C3.30132 0 0.00224576 1.77641 8.40251e-07 4.50014C-0.00192338 7.24921 3.30132 9 7.3736 9Z" fill="black"/>
</svg>
