<svg width="21" height="21" viewBox="0 0 21 21" fill="none" xmlns="http://www.w3.org/2000/svg">
<path d="M19.6985 10.5007L20.8591 8.49483C21.1492 7.99127 20.9768 7.34893 20.4754 7.05878L18.4674 5.89817V3.58535C18.4674 3.004 17.9975 2.53407 17.4161 2.53407H15.1044L13.9448 0.52718C13.805 0.286437 13.5747 0.109822 13.3067 0.0372839C13.0375 -0.0363056 12.7505 0.00259187 12.5088 0.142412L10.5008 1.30302L8.49286 0.141361C7.9893 -0.149844 7.34697 0.0236175 7.05682 0.526129L5.8962 2.53407H3.58444C3.00308 2.53407 2.53316 3.004 2.53316 3.58535V5.89712L0.525214 7.05773C0.28342 7.19755 0.107856 7.42778 0.0363689 7.69691C-0.0351182 7.96709 0.00272781 8.25303 0.141497 8.49483L1.30211 10.5007L0.141497 12.5065C0.00167653 12.7483 -0.0361694 13.0353 0.0353177 13.3055C0.106805 13.5746 0.282368 13.8048 0.524163 13.9436L2.53211 15.1042V17.416C2.53211 17.9973 3.00203 18.4673 3.58339 18.4673H5.8962L7.05682 20.4752C7.19664 20.716 7.42687 20.8915 7.69599 20.9651C7.78535 20.9882 7.87576 21.0009 7.96722 21.0009C8.15015 21.0009 8.33202 20.9525 8.49391 20.8589L10.4998 19.6983L12.5077 20.8589C12.7484 20.9988 13.0365 21.0355 13.3056 20.9641C13.5748 20.8926 13.805 20.717 13.9437 20.4752L15.1033 18.4673H17.4151C17.9964 18.4673 18.4664 17.9973 18.4664 17.416V15.1042L20.4743 13.9436C20.9768 13.6524 21.1492 13.009 20.858 12.5065L19.6985 10.5007ZM7.87156 5.23376C8.74202 5.23376 9.44848 5.94022 9.44848 6.81068C9.44848 7.68114 8.74202 8.3876 7.87156 8.3876C7.0011 8.3876 6.29464 7.68114 6.29464 6.81068C6.29464 5.94022 7.0011 5.23376 7.87156 5.23376ZM8.18694 15.326L6.50489 14.0656L12.8126 5.65532L14.4946 6.91581L8.18694 15.326ZM13.128 15.7466C12.2575 15.7466 11.551 15.0401 11.551 14.1696C11.551 13.2992 12.2575 12.5927 13.128 12.5927C13.9984 12.5927 14.7049 13.2992 14.7049 14.1696C14.7049 15.0401 13.9984 15.7466 13.128 15.7466Z" fill="#40A84A"/>
</svg>
