<svg width="19" height="26" viewBox="0 0 19 26" fill="none" xmlns="http://www.w3.org/2000/svg">
<path d="M19 9.5C19 4.23269 14.7251 0 9.5 0C4.27492 0 0 4.27492 0 9.5C0 13.1269 2.20243 16.3217 5.18123 17.9199L4.31877 25.9078L9.5 22.4531L14.6812 25.9078L13.8171 17.9199C16.8398 16.3217 19 13.1269 19 9.5ZM9.5 18.1359C8.36585 18.1361 7.24278 17.9129 6.19492 17.479C5.14707 17.0451 4.19497 16.409 3.39301 15.607C2.59104 14.805 1.95494 13.8529 1.52102 12.8051C1.0871 11.7572 0.863866 10.6341 0.864079 9.5C0.864079 4.70696 4.75081 0.864079 9.5 0.864079C14.2492 0.864079 18.1359 4.75081 18.1359 9.5C18.1398 10.6352 17.919 11.7599 17.4864 12.8094C17.0538 13.8589 16.4178 14.8124 15.6151 15.6151C14.8124 16.4178 13.8589 17.0538 12.8094 17.4864C11.7599 17.919 10.6352 18.1398 9.5 18.1359ZM13.3867 5.95922L14.6829 7.25534L8.85194 13.0846L5.61327 9.84596L6.90939 8.54984L8.85194 10.4924L13.3867 5.95922Z" fill="#40A84A"/>
</svg>
