<svg width="60" height="10" viewBox="0 0 60 10" fill="none" xmlns="http://www.w3.org/2000/svg">
<path fill-rule="evenodd" clip-rule="evenodd" d="M7.10099 9.36805C6.30676 8.87047 5.72136 7.15343 5.72136 5.11289C5.72136 5.03802 5.72167 4.96409 5.72357 4.89048L5.7242 4.89143C3.51464 4.54423 1.91828 3.59299 1.87721 2.46767L1.87089 2.48094C1.33035 3.15291 1.02169 3.92976 1.02169 4.75748C1.02169 7.19324 3.69535 9.18892 7.08677 9.36552L7.10099 9.36805ZM0 4.93502C0 2.20988 3.39174 0 7.57551 0C11.7596 0 15.1513 2.20988 15.1513 4.93502C15.1513 7.66049 11.7596 9.87037 7.57551 9.87037C3.39174 9.87037 0 7.66049 0 4.93502ZM7.57582 0.712089C8.38364 0.712089 9.07077 1.93755 9.3254 3.64733L9.32603 3.64448C10.8977 3.39996 11.9978 2.83572 11.9978 2.17892C11.9978 1.29781 10.0179 0.58414 7.57582 0.58414C5.13406 0.58414 3.15417 1.29781 3.15417 2.17892C3.15417 2.83572 4.25421 3.39964 5.82561 3.64448L5.82656 3.64733C6.08119 1.93755 6.76832 0.712089 7.57582 0.712089ZM8.06487 9.36521C11.4563 9.18861 14.1303 7.19292 14.1303 4.75716C14.1303 3.92944 13.8213 3.15259 13.2811 2.48062L13.2744 2.46735C13.2337 3.59267 11.6373 4.54391 9.42744 4.89111L9.42839 4.89016C9.42997 4.96377 9.4306 5.0377 9.4306 5.11257C9.4306 7.15312 8.84488 8.87015 8.05097 9.36773L8.06487 9.36521ZM7.57582 3.77401C7.92646 3.77443 8.27694 3.75946 8.62626 3.72915L8.62595 3.72946C8.45851 2.63384 8.0516 1.86015 7.57614 1.86015C7.10067 1.86015 6.69408 2.63384 6.52633 3.72946L6.52601 3.72915C6.87513 3.75931 7.2254 3.77428 7.57582 3.77401ZM7.57582 7.83235C8.18397 7.83235 8.68029 6.56676 8.70651 4.97988L8.70967 4.98083C7.95547 5.05032 7.19649 5.05032 6.44229 4.98083L6.44545 4.97988C6.47167 6.56676 6.96767 7.83235 7.57582 7.83235ZM38.6569 4.93502C38.6569 2.85215 40.3458 1.16323 42.4287 1.16323C44.5125 1.16323 46.2011 2.85215 46.2011 4.93502C46.2011 7.01853 44.5122 8.70682 42.4287 8.70682C40.3458 8.70682 38.6569 7.01853 38.6569 4.93502ZM42.4287 7.32372C43.5919 7.32372 44.5353 6.254 44.5353 4.93471C44.5353 3.61573 43.5919 2.54602 42.4287 2.54602C41.2655 2.54602 40.3228 3.61573 40.3228 4.93471C40.3228 6.25432 41.2658 7.32372 42.4287 7.32372ZM50.4813 2.73462V8.53559H48.8915V2.73462H48.8972H46.6747V1.42323H52.6981V2.73462H50.4813ZM54.6208 6.93545L54.6195 6.93702L54.0098 8.53591H52.1531L55.0877 1.42323H57.066L60 8.53591H58.144L57.5342 6.93702L57.5323 6.93545H54.6208ZM56.0769 5.73494H57.0771L57.0765 5.73526L56.0835 3.13205H56.0699L55.077 5.73526L55.0764 5.73494H56.0769ZM21.1848 2.73462V8.53559H19.5954V2.73462H19.6011H17.3783V1.42323H23.402V2.73462H21.1848ZM23.8086 4.93502C23.8086 2.85215 25.4975 1.16323 27.581 1.16323C29.6642 1.16323 31.3531 2.85215 31.3531 4.93502C31.3531 7.01853 29.6642 8.70682 27.581 8.70682C25.4975 8.70682 23.8086 7.01853 23.8086 4.93502ZM27.581 7.32372C28.7439 7.32372 29.6872 6.254 29.6872 4.93471C29.6872 3.61573 28.7439 2.54602 27.581 2.54602C26.4178 2.54602 25.4747 3.61573 25.4747 4.93471C25.4747 6.25432 26.4178 7.32372 27.581 7.32372ZM35.0045 8.53559H35.8104V5.83509L38.5833 1.42323H36.7273L35.0045 4.4128L33.2824 1.42323H31.4264L34.1989 5.83509V8.53559H35.0045Z" fill="#CC2229"/>
</svg>
