<svg width="19" height="28" viewBox="0 0 19 28" fill="none" xmlns="http://www.w3.org/2000/svg">
<path d="M19 9.5042C19.0007 7.8687 18.5792 6.26071 17.7762 4.83589C16.9733 3.41108 15.8161 2.21769 14.4166 1.37125C13.0172 0.52481 11.423 0.0539933 9.78822 0.00437397C8.15348 -0.0452454 6.53361 0.328013 5.08542 1.08802C3.63723 1.84802 2.40978 2.96903 1.52188 4.34253C0.633979 5.71602 0.115709 7.29548 0.0172371 8.92801C-0.0812347 10.5605 0.243427 12.1908 0.959795 13.6611C1.67616 15.1314 2.75997 16.3918 4.10631 17.3204L1.29535e-06 24.4328L3.0612 24.5592L4.70129 27.147L9.40533 18.9994C9.43722 18.9997 9.46803 19.0042 9.5 19.0042C9.53197 19.0042 9.56278 18.9997 9.59467 18.9994L14.2987 27.147L15.9707 24.6146L19 24.4328L14.8936 17.3204C16.1605 16.4481 17.1963 15.2808 17.9116 13.9192C18.627 12.5575 19.0005 11.0423 19 9.5042ZM2.71429 9.5042C2.71429 8.16211 3.11226 6.85016 3.85789 5.73426C4.60351 4.61835 5.66329 3.74861 6.90322 3.23501C8.14315 2.72142 9.50753 2.58704 10.8238 2.84887C12.1401 3.1107 13.3492 3.75697 14.2982 4.70597C15.2472 5.65497 15.8935 6.86407 16.1553 8.18037C16.4172 9.49667 16.2828 10.861 15.7692 12.101C15.2556 13.3409 14.3858 14.4007 13.2699 15.1463C12.154 15.8919 10.8421 16.2899 9.5 16.2899C7.70032 16.2899 5.97434 15.575 4.70178 14.3024C3.42921 13.0299 2.71429 11.3039 2.71429 9.5042Z" fill="#40A84A"/>
<path d="M9.50002 13.5756C11.7486 13.5756 13.5714 11.7528 13.5714 9.50417C13.5714 7.25558 11.7486 5.43274 9.50002 5.43274C7.25143 5.43274 5.42859 7.25558 5.42859 9.50417C5.42859 11.7528 7.25143 13.5756 9.50002 13.5756Z" fill="#40A84A"/>
</svg>
